<svg xmlns="http://www.w3.org/2000/svg" viewBox="0 0 257.52 117.85"><defs><style>.cls-1{fill:#fff;}</style></defs><title>fw-logo</title><g id="Layer_2" data-name="Layer 2"><g id="Layer_1-2" data-name="Layer 1"><path class="cls-1" d="M238.91,16.5l-5,11-5.54-11H209.71L210,17a45.92,45.92,0,0,0-8.65-1.33c-9.5-.41-19.83,6.24-19.83,16.09,0,7.58,5.31,13.36,15.51,14.41,1.51.17,4.14,1,4.14,2.92s-2.27,2.84-4.2,2.84c-6.47-.16-12.18-5.18-13-5.88l-1.29,4.2L171.8,16.5h-18L149.53,29V16.5H98.21v21L85.9,16.5h-17v37l-12-37H39l-9,26.59V34.51H17v-6H31.49v-12H.12V62.74H17V46.34H28.8L23.22,62.74h17l1.58-6.08H52.9l1.69,6.08H85.67V42.91L97.81,62.74H115v-32h8.17v32h31.89l1.57-6.08h11.08l1.69,6.08h17.32l-.4-1.25a27.07,27.07,0,0,0,11.77,2.3c9.33-.07,19.24-5.19,19.65-16.86.23-7.81-6.24-13.06-14-14-1.05-.12-5.08-.93-5.08-3.09-.05-1.81,2-2.68,3.91-2.63,5.31.11,10,3.21,10,3.15l2-5.73L225.45,42.5V62.74H242V42L257.52,16.5ZM45,45.59l2.68-9.85,2.57,9.85ZM139.5,30.72h9.43L139.5,58.44Zm20.28,14.86,2.68-9.85L165,45.59Z"/><path class="cls-1" d="M215.11,70H193v32.44h-12.3V70H164v5.7C160.77,71.38,155,70,149.21,70H125.37v9a25,25,0,0,0-20.48-10.62,24.6,24.6,0,0,0-17.28,7.19L89.16,70H72.44L66.91,93.55,61.26,70H46.64L40.76,93.9,35.63,70H19.43L31.9,116.16h16l6.06-22.6,5.94,22.6H76.29l4.73-17a24.82,24.82,0,0,0,23.58,18.66,24.53,24.53,0,0,0,20.77-10.22v8.54h16.09V100.67l8.33,15.49h65.25c12.88,0,22.19-10.48,22-25C236.84,78.7,228.62,70,215.11,70ZM105.18,102.18c-5,.11-8-4.2-8.21-8.92s3.09-9.39,8-9.55,7.79,4.31,7.92,9S110.2,102.06,105.18,102.18Zm40-11.88h-3.84V82.37H145c2.21,0,4.3.81,4.48,3.67A4,4,0,0,1,145.19,90.3ZM156.6,97A13.27,13.27,0,0,0,164,92.51v16.63Zm52.86,5.07v-18c5.12-.87,10.71,1.69,10.71,8.22C220.12,100.14,215.05,102.94,209.46,102.06Z"/><path class="cls-1" d="M238.91,16.5l-5,11-5.54-11H209.71L210,17a45.92,45.92,0,0,0-8.65-1.33c-9.5-.41-19.83,6.24-19.83,16.09,0,7.58,5.31,13.36,15.51,14.41,1.51.17,4.14,1,4.14,2.92s-2.27,2.84-4.2,2.84c-6.47-.16-12.18-5.18-13-5.88l-1.29,4.2L171.8,16.5h-18L149.53,29V16.5H98.21v21L85.9,16.5h-17v37l-12-37H39l-9,26.59V34.51H17v-6H31.49v-12H.12V62.74H17V46.34H28.8L23.22,62.74h17l1.58-6.08H52.9l1.69,6.08H85.67V42.91L97.81,62.74H115v-32h8.17v32h31.89l1.57-6.08h11.08l1.69,6.08h17.32l-.4-1.25a27.07,27.07,0,0,0,11.77,2.3c9.33-.07,19.24-5.19,19.65-16.86.23-7.81-6.24-13.06-14-14-1.05-.12-5.08-.93-5.08-3.09-.05-1.81,2-2.68,3.91-2.63,5.31.11,10,3.21,10,3.15l2-5.73L225.45,42.5V62.74H242V42L257.52,16.5ZM45,45.59l2.68-9.85,2.57,9.85ZM139.5,30.72h9.43L139.5,58.44Zm20.28,14.86,2.68-9.85L165,45.59Z"/><path class="cls-1" d="M215.11,70H193v32.44h-12.3V70H164v5.7C160.77,71.38,155,70,149.21,70H125.37v9a25,25,0,0,0-20.48-10.62,24.6,24.6,0,0,0-17.28,7.19L89.16,70H72.44L66.91,93.55,61.26,70H46.64L40.76,93.9,35.63,70H19.43L31.9,116.16h16l6.06-22.6,5.94,22.6H76.29l4.73-17a24.82,24.82,0,0,0,23.58,18.66,24.53,24.53,0,0,0,20.77-10.22v8.54h16.09V100.67l8.33,15.49h65.25c12.88,0,22.19-10.48,22-25C236.84,78.7,228.62,70,215.11,70ZM105.18,102.18c-5,.11-8-4.2-8.21-8.92s3.09-9.39,8-9.55,7.79,4.31,7.92,9S110.2,102.06,105.18,102.18Zm40-11.88h-3.84V82.37H145c2.21,0,4.3.81,4.48,3.67A4,4,0,0,1,145.19,90.3ZM156.6,97A13.27,13.27,0,0,0,164,92.51v16.63Zm52.86,5.07v-18c5.12-.87,10.71,1.69,10.71,8.22C220.12,100.14,215.05,102.94,209.46,102.06Z"/><path class="cls-1" d="M2.49,9.66a24.58,24.58,0,0,1,.78-3.74A12.35,12.35,0,0,0,5.17,9.16a3,3,0,0,0,2.18,1.38C8.23,10.54,8.78,10,9,9H8.9Q7.22,9,5.12,5.19A30.08,30.08,0,0,1,7.75,2.79a3.1,3.1,0,0,1,1.91-.64h.46c.06-.41.1-.64.1-.69,0-.5-.31-.75-.93-.75q-1.8,0-5.87,4.52L4,2.77a8,8,0,0,0,.36-1.53q0-.53-.84-.53a5,5,0,0,0-2,.48,1.19,1.19,0,0,1,.25.73A28.58,28.58,0,0,1,.18,9,3.41,3.41,0,0,0,0,9.92c0,.36.31.54.93.54a4.57,4.57,0,0,0,1.62-.34,2.57,2.57,0,0,1-.06-.46Z"/><path class="cls-1" d="M11.62,3.62a12.35,12.35,0,0,1-.57,2.91,12.64,12.64,0,0,0-.57,2.91q0,1,1.3,1a3.27,3.27,0,0,0,1.49-.41A1.54,1.54,0,0,1,12.88,9,21.13,21.13,0,0,1,14,4a2.47,2.47,0,0,0,.12-.71c0-.44-.33-.66-1-.66a5.69,5.69,0,0,0-1.68.29,1.38,1.38,0,0,1,.2.7Zm3.08-3c0-.42-.33-.62-1-.62a4.94,4.94,0,0,0-1.45.27.46.46,0,0,1,.08.23,2.42,2.42,0,0,1-.06.42,2,2,0,0,0-.07.42c0,.28.3.41.89.41a3.62,3.62,0,0,0,1.31-.28A2.19,2.19,0,0,0,14.7.62Z"/><path class="cls-1" d="M19.84,9.16c0,.87.47,1.31,1.39,1.31A2.15,2.15,0,0,0,22.56,10a2.91,2.91,0,0,1-.33-1.41A28,28,0,0,1,23.5,2.48a4,4,0,0,0,.17-1c0-.5-.34-.74-1-.74a3.22,3.22,0,0,0-1.47.39,2,2,0,0,1,.07.51A6.46,6.46,0,0,1,21,3.13a3.37,3.37,0,0,0-1.72-.41A4.11,4.11,0,0,0,16,4.58a6.39,6.39,0,0,0-1.4,3.87c0,1.4.59,2.09,1.76,2.09s2.35-1,3.68-3.07a10.89,10.89,0,0,0-.16,1.68ZM19.21,7c-.86,1.25-1.44,1.88-1.74,1.88S17,8.58,17,8a6.89,6.89,0,0,1,.62-2.68c.41-1,.9-1.46,1.47-1.46a2,2,0,0,1,1.53.88L19.21,7Z"/><path class="cls-1" d="M23.17,9.62c0,.62.77.93,2.31.93a5,5,0,0,0,2.94-.81,2.5,2.5,0,0,0,1.14-2.17,1.76,1.76,0,0,0-.71-1.41l-1.31-.82c-.47-.29-.71-.61-.71-.94,0-.63.35-.94,1.05-.94a2.2,2.2,0,0,1,1.56.93c.64-.4,1-.78,1-1.16s-.68-.66-2-.66a4.54,4.54,0,0,0-2.68.74,2.32,2.32,0,0,0-1,2,1.7,1.7,0,0,0,.7,1.36c1.32.83,2,1.43,2,1.81q0,1.08-1.23,1.09a1.75,1.75,0,0,1-1.71-1.31c-.8.45-1.2.92-1.2,1.38Z"/><path class="cls-1" d="M36.79,2.78V3a1.68,1.68,0,0,1,.61.07.55.55,0,0,1,.25.24A2.43,2.43,0,0,1,37.7,4V5.64A2.79,2.79,0,0,0,37,5.13,2,2,0,0,0,36.18,5a2.62,2.62,0,0,0-1.29.34,2.42,2.42,0,0,0-.94,1,3.22,3.22,0,0,0-.35,1.52,2.84,2.84,0,0,0,.56,1.79,2.24,2.24,0,0,0,1.88.9,2,2,0,0,0,.84-.18,3,3,0,0,0,.84-.66v.83l2.63-.44V9.9a1.24,1.24,0,0,1-.52-.11.45.45,0,0,1-.2-.27,3.22,3.22,0,0,1,0-.71v-6ZM37.7,9.1a1.41,1.41,0,0,1-1.1.77.72.72,0,0,1-.42-.11,1.42,1.42,0,0,1-.48-.69,4.8,4.8,0,0,1-.17-1.47,4.2,4.2,0,0,1,.15-1.34,1.21,1.21,0,0,1,.4-.61.68.68,0,0,1,.41-.12,1.42,1.42,0,0,1,1.2.8Z"/><path class="cls-1" d="M45.62,5.64A2.31,2.31,0,0,0,44,5a2.8,2.8,0,0,0-2,.77,2.69,2.69,0,0,0-.84,2.09,2.78,2.78,0,0,0,.57,1.79,2.5,2.5,0,0,0,2.09.9,2.7,2.7,0,0,0,1.41-.36A3.3,3.3,0,0,0,46.36,9l-.22-.14a2.77,2.77,0,0,1-.7.69,1.54,1.54,0,0,1-1.84-.28,2.48,2.48,0,0,1-.66-1.66h3.43A2.68,2.68,0,0,0,45.62,5.64ZM42.91,7.21V7a2.12,2.12,0,0,1,.4-1.36.7.7,0,0,1,.57-.28.6.6,0,0,1,.37.1,1,1,0,0,1,.37.5,4.49,4.49,0,0,1,.12,1.23Z"/><path class="cls-1" d="M50.82,5a1.16,1.16,0,0,1-.23.24.39.39,0,0,1-.19,0,.72.72,0,0,1-.29-.08,2.32,2.32,0,0,0-1-.21,1.92,1.92,0,0,0-1.43.49,1.51,1.51,0,0,0-.5,1.1,1.46,1.46,0,0,0,.44,1A6.88,6.88,0,0,0,49,8.5a4.89,4.89,0,0,1,.89.6.61.61,0,0,1,.2.46.5.5,0,0,1-.2.4.81.81,0,0,1-.52.16,1.75,1.75,0,0,1-1-.37,2.46,2.46,0,0,1-.82-1.12h-.24l.1,1.89h.23c.1-.19.22-.28.37-.28a1.24,1.24,0,0,1,.27.06,4.17,4.17,0,0,0,1.19.24,2.46,2.46,0,0,0,1-.22,1.73,1.73,0,0,0,.73-.65,1.61,1.61,0,0,0,.26-.86,1.39,1.39,0,0,0-.31-.87,4.69,4.69,0,0,0-1.29-1,6.25,6.25,0,0,1-1.18-.79.43.43,0,0,1-.14-.29.46.46,0,0,1,.19-.36.71.71,0,0,1,.46-.15,1.56,1.56,0,0,1,.87.29,2.91,2.91,0,0,1,.84,1.1h.23L51.05,5Z"/><path class="cls-1" d="M57,5.64A2.3,2.3,0,0,0,55.33,5a2.81,2.81,0,0,0-2,.77,2.71,2.71,0,0,0-.84,2.09,2.8,2.8,0,0,0,.57,1.79,2.51,2.51,0,0,0,2.09.9,2.68,2.68,0,0,0,1.41-.36A3.31,3.31,0,0,0,57.71,9l-.22-.14a2.74,2.74,0,0,1-.71.69,1.45,1.45,0,0,1-.73.19,1.52,1.52,0,0,1-1.11-.47,2.47,2.47,0,0,1-.66-1.66h3.43A2.69,2.69,0,0,0,57,5.64Zm-2.7,1.57V7a2.12,2.12,0,0,1,.4-1.36.7.7,0,0,1,.57-.28.61.61,0,0,1,.38.1A1,1,0,0,1,56,6a4.21,4.21,0,0,1,.12,1.23Z"/><path class="cls-1" d="M58.55,5.14v.19a1.18,1.18,0,0,1,.44.11.43.43,0,0,1,.19.23,1.76,1.76,0,0,1,.06.58v2.9a1.54,1.54,0,0,1-.14.85.83.83,0,0,1-.54.19v.2h3.35v-.2a1.76,1.76,0,0,1-.52-.08.49.49,0,0,1-.24-.23,1.2,1.2,0,0,1,0-.4V7.94a3.38,3.38,0,0,1,.21-1.2,1.18,1.18,0,0,1,.41-.55.62.62,0,0,1,.36-.12.29.29,0,0,1,.15,0l.3.21a.94.94,0,0,0,.6.19.73.73,0,0,0,.75-.79.68.68,0,0,0-.22-.54A.84.84,0,0,0,63.07,5a1.81,1.81,0,0,0-.9.27,4,4,0,0,0-1.09,1.07V5.14Z"/><path class="cls-1" d="M67.65,10.54l2.08-4.12a3.19,3.19,0,0,1,.55-.9.91.91,0,0,1,.48-.19V5.14h-2v.19a1.06,1.06,0,0,1,.53.12.34.34,0,0,1,.14.29,2.87,2.87,0,0,1-.35,1l-.82,1.7-1-2a2.29,2.29,0,0,1-.29-.79.37.37,0,0,1,.16-.29.69.69,0,0,1,.43-.1V5.14H64.19v.19a.88.88,0,0,1,.45.2,4,4,0,0,1,.6,1l2.1,4.05Z"/><path class="cls-1" d="M75.87,5.64A2.29,2.29,0,0,0,74.23,5a2.79,2.79,0,0,0-2,.77,2.7,2.7,0,0,0-.84,2.09A2.81,2.81,0,0,0,72,9.64a2.51,2.51,0,0,0,2.09.9,2.71,2.71,0,0,0,1.41-.36A3.32,3.32,0,0,0,76.62,9l-.23-.14a2.61,2.61,0,0,1-.71.69,1.42,1.42,0,0,1-.72.19,1.51,1.51,0,0,1-1.11-.47,2.44,2.44,0,0,1-.66-1.66h3.43A2.69,2.69,0,0,0,75.87,5.64Zm-2.7,1.57V7a2.11,2.11,0,0,1,.39-1.36.7.7,0,0,1,.57-.28.64.64,0,0,1,.38.1,1,1,0,0,1,.36.5A4.13,4.13,0,0,1,75,7.21Z"/><path class="cls-1" d="M83,3.22a6.5,6.5,0,0,1-1,1.23A7.78,7.78,0,0,1,80.6,5.5v.2h.8V8.53a4.54,4.54,0,0,0,.07,1,1.28,1.28,0,0,0,.52.62,1.78,1.78,0,0,0,1,.28,1.8,1.8,0,0,0,1.75-1.09l-.2-.13a1,1,0,0,1-.81.56.43.43,0,0,1-.23-.08.42.42,0,0,1-.18-.21,2.25,2.25,0,0,1,0-.58V5.7h1.47V5.14H83.27V3.22Z"/><path class="cls-1" d="M85.36,2.78V3a.88.88,0,0,1,.54.19,1.35,1.35,0,0,1,.12.74V9.25c0,.41,0,.64-.11.72a.81.81,0,0,1-.55.21v.2H88.5v-.2A.69.69,0,0,1,88,9.95a1.55,1.55,0,0,1-.1-.7V6.43a2,2,0,0,1,.55-.54A1,1,0,0,1,89,5.74a.57.57,0,0,1,.32.09.54.54,0,0,1,.2.26,3.07,3.07,0,0,1,.06.82V9.25a1.26,1.26,0,0,1-.12.71.77.77,0,0,1-.51.23v.2h3.16v-.2a.84.84,0,0,1-.53-.19,1.31,1.31,0,0,1-.13-.75v-2a4.17,4.17,0,0,0-.14-1.28,1.3,1.3,0,0,0-.56-.66,1.75,1.75,0,0,0-1-.28,2.15,2.15,0,0,0-.89.19,3.58,3.58,0,0,0-.95.64v-3Z"/><path class="cls-1" d="M97.44,5.64A2.3,2.3,0,0,0,95.8,5a2.82,2.82,0,0,0-2,.77A2.72,2.72,0,0,0,93,7.85a2.8,2.8,0,0,0,.57,1.79,2.5,2.5,0,0,0,2.09.9,2.71,2.71,0,0,0,1.42-.36A3.35,3.35,0,0,0,98.18,9L98,8.81a2.69,2.69,0,0,1-.7.69,1.45,1.45,0,0,1-.73.19,1.5,1.5,0,0,1-1.11-.47,2.46,2.46,0,0,1-.67-1.66h3.43A2.72,2.72,0,0,0,97.44,5.64Zm-2.7,1.57V7a2.14,2.14,0,0,1,.39-1.36.71.71,0,0,1,.57-.28.64.64,0,0,1,.38.1,1,1,0,0,1,.37.5,4.4,4.4,0,0,1,.11,1.23Z"/><path class="cls-1" d="M102.17,2.78V3a1.3,1.3,0,0,1,.5.08.52.52,0,0,1,.22.24,2.2,2.2,0,0,1,0,.56v6.68h.23l1-.58a2.72,2.72,0,0,0,.78.44,2.63,2.63,0,0,0,.9.14,3.22,3.22,0,0,0,1.55-.37A2.74,2.74,0,0,0,108.5,9.1a3.07,3.07,0,0,0,.41-1.55,2.74,2.74,0,0,0-.32-1.35,2.28,2.28,0,0,0-.88-.9A2.39,2.39,0,0,0,106.5,5a2.55,2.55,0,0,0-1.71.68V2.78Zm3.73,2.84a.86.86,0,0,1,.71.33A2.76,2.76,0,0,1,107,7.6a6.47,6.47,0,0,1-.16,1.74,1.24,1.24,0,0,1-.41.64,1,1,0,0,1-.59.16.94.94,0,0,1-.65-.2.9.9,0,0,1-.33-.53,7.2,7.2,0,0,1,0-.91V6.16a1.56,1.56,0,0,1,1.1-.54Z"/><path class="cls-1" d="M114.46,5.64A2.3,2.3,0,0,0,112.83,5a2.8,2.8,0,0,0-2,.77A2.7,2.7,0,0,0,110,7.85a2.8,2.8,0,0,0,.57,1.79,2.51,2.51,0,0,0,2.09.9,2.73,2.73,0,0,0,1.42-.36A3.32,3.32,0,0,0,115.21,9L115,8.81a2.64,2.64,0,0,1-.7.69,1.46,1.46,0,0,1-.73.19,1.5,1.5,0,0,1-1.11-.47,2.43,2.43,0,0,1-.66-1.66h3.43A2.69,2.69,0,0,0,114.46,5.64Zm-2.7,1.57V7a2.11,2.11,0,0,1,.4-1.36.71.71,0,0,1,.57-.28.62.62,0,0,1,.37.1,1,1,0,0,1,.37.5,4.52,4.52,0,0,1,.11,1.23Z"/><path class="cls-1" d="M119.67,5a1.09,1.09,0,0,1-.23.24.39.39,0,0,1-.2,0,.71.71,0,0,1-.29-.08A2.34,2.34,0,0,0,118,5a1.92,1.92,0,0,0-1.43.49,1.5,1.5,0,0,0-.49,1.1,1.44,1.44,0,0,0,.43,1,6.81,6.81,0,0,0,1.31.91,4.65,4.65,0,0,1,.89.6.63.63,0,0,1,.2.46.51.51,0,0,1-.2.4.81.81,0,0,1-.52.16,1.74,1.74,0,0,1-1-.37,2.42,2.42,0,0,1-.82-1.12h-.24l.1,1.89h.23c.1-.19.22-.28.37-.28a1.28,1.28,0,0,1,.28.06,4.12,4.12,0,0,0,1.18.24,2.46,2.46,0,0,0,1-.22,1.72,1.72,0,0,0,.73-.65,1.6,1.6,0,0,0,.26-.86,1.37,1.37,0,0,0-.31-.87,4.62,4.62,0,0,0-1.29-1,6.29,6.29,0,0,1-1.18-.79.43.43,0,0,1-.13-.29.45.45,0,0,1,.19-.36.73.73,0,0,1,.46-.15,1.54,1.54,0,0,1,.86.29,2.87,2.87,0,0,1,.84,1.1H120L119.9,5Z"/><path class="cls-1" d="M123.54,3.22a6.33,6.33,0,0,1-1,1.23,7.9,7.9,0,0,1-1.42,1.06v.2h.8V8.53a4.31,4.31,0,0,0,.07,1,1.26,1.26,0,0,0,.51.62,1.95,1.95,0,0,0,2.75-.81l-.2-.13a1,1,0,0,1-.81.56.44.44,0,0,1-.23-.08.4.4,0,0,1-.17-.21,2.11,2.11,0,0,1,0-.58V5.7h1.47V5.14h-1.47V3.22Z"/><path class="cls-1" d="M128.06,6.37l.35-1.23a7.25,7.25,0,0,0,.33-1.6.84.84,0,0,0-.31-.67,1.2,1.2,0,0,0-.8-.27,1.15,1.15,0,0,0-.79.27.86.86,0,0,0-.31.7,6.58,6.58,0,0,0,.31,1.58l.34,1.23a8.2,8.2,0,0,1,.3,1.55h.29a8.74,8.74,0,0,1,.27-1.55ZM126.88,9a.81.81,0,0,0-.32.64.8.8,0,0,0,.32.64,1.15,1.15,0,0,0,.77.27,1.17,1.17,0,0,0,.78-.27.79.79,0,0,0,.32-.64.82.82,0,0,0-.32-.65,1.16,1.16,0,0,0-.78-.27A1.11,1.11,0,0,0,126.88,9Z"/></g></g></svg>